# xmcd
#
# Track frame offsets:
#	150
#	36813
#	58103
#	82978
#	102859
#	121974
#	148159
#	171720
#	188442
#	216685
#	237379
#	261600
#	289222
#	319387
#
# Disc length: 4469 seconds
#
# Revision: 1
# Processed by: cddbd v1.4PL0 Copyright (c) Steve Scherf et al.
# Submitted via: EasyCDDAExtractor 5.0.6
#
DISCID=e311730e
DTITLE=Various Artist - Bestsellers
DYEAR=1900
DGENRE=
TTITLE0=Frank Duval - Lord
TTITLE1=Morten Harket - Half in love Half in hate
TTITLE2=Tony Joe White - The guitar don`t lie
TTITLE3=George Michael - Safe
TTITLE4=Chris Botti - Never Gone
TTITLE5=SADE - Haunt me
TTITLE6=Supermax - Miss you
TTITLE7=Marie Fredriksson - Medan Tiden Ar Inne
TTITLE8=Rick Write - Reaching for the rail
TTITLE9=Nick Cave and the bad Seeds - Crow Jane
TTITLE10=Romantic - Ference Snetberg - Manna de Carnival
TTITLE11=Yukie Nishimura - Kiss the blues away
TTITLE12=Sally Oldfield - Twilight zone
TTITLE13=Frank Duval - Time for lovers
EXTD=
EXTT0=
EXTT1=
EXTT2=
EXTT3=
EXTT4=
EXTT5=
EXTT6=
EXTT7=
EXTT8=
EXTT9=
EXTT10=
EXTT11=
EXTT12=
EXTT13=
PLAYORDER=
